<svg width="354" height="56" viewBox="0 0 354 56" fill="none" xmlns="http://www.w3.org/2000/svg">
<path d="M36 8.5C46.7696 8.5 55.5 17.2304 55.5 28C55.5 38.7696 46.7696 47.5 36 47.5C25.2304 47.5 16.5 38.7696 16.5 28C16.5 17.2304 25.2304 8.5 36 8.5Z" stroke="#E0E0E0"/>


<path d="M31 28L41 28M36 33L36 23" stroke="#288556" stroke-width="1.5" stroke-linecap="round" stroke-linejoin="round"/>


<path d="M64 28C64 16.9543 72.9543 8 84 8C95.0457 8 104 16.9543 104 28C104 39.0457 95.0457 48 84 48C72.9543 48 64 39.0457 64 28Z" fill="#288556" fill-opacity="0.1"/>


<path d="M84.952 21.512L79.528 36.088H77.976L75.384 29.192H72.28V27.976H76.424L78.776 34.488L83.544 21.512H84.952ZM86.6264 33H85.0904L88.1464 28.664L85.2824 24.536H86.8664L89.1064 27.848L91.3464 24.536H92.8184L89.9864 28.712L93.0104 33H91.4424L89.0264 29.496L86.6264 33Z" fill="#288556"/>
<path d="M298 28C298 16.9543 306.954 8 318 8C329.046 8 338 16.9543 338 28C338 39.0457 329.046 48 318 48C306.954 48 298 39.0457 298 28Z" fill="#288556"/>
<path d="M318 34.6667L318 21.3333M318 21.3333L313 26.3333M318 21.3333L323 26.3333" stroke="white" stroke-width="1.5" stroke-linecap="round" stroke-linejoin="round"/>
</svg>
